<?xml version="1.0" standalone="no"?>
<!DOCTYPE svg PUBLIC "-//W3C//DTD SVG 20010904//EN"
 "http://www.w3.org/TR/2001/REC-SVG-20010904/DTD/svg10.dtd">
<svg version="1.0" xmlns="http://www.w3.org/2000/svg"
 width="512.000000pt" height="512.000000pt" viewBox="0 0 512.000000 512.000000"
 preserveAspectRatio="xMidYMid meet">
<metadata>
Created by potrace 1.14, written by Peter Selinger 2001-2017
</metadata>
<g transform="translate(0.000000,512.000000) scale(0.100000,-0.100000)"
fill="#000000" stroke="none">
<path d="M2500 4935 c-89 -89 -97 -95 -135 -95 -35 0 -47 -6 -80 -40 -24 -24
-48 -40 -63 -40 -13 0 -33 -5 -44 -11 -12 -6 -45 -12 -74 -13 l-53 -1 51 53
c30 30 46 52 37 52 -8 0 -46 -31 -84 -70 -63 -64 -73 -70 -110 -70 -39 0 -46
-6 -291 -251 l-251 -251 -57 17 c-38 11 -83 16 -129 13 -67 -3 -72 -2 -75 18
-3 19 3 23 47 29 58 8 137 -1 195 -21 40 -14 40 -14 78 23 21 20 33 40 28 43
-5 3 10 26 35 50 25 24 45 48 45 52 0 19 -30 5 -56 -24 -48 -58 -58 -62 -117
-42 -55 19 -195 25 -254 12 -31 -7 -33 -6 -43 35 -16 63 -19 69 -29 63 -6 -4
-1 -38 11 -82 11 -41 19 -76 17 -77 -2 -2 -35 -18 -74 -37 -112 -54 -210 -165
-249 -282 -4 -15 -21 -9 -117 47 -85 50 -121 65 -150 65 l-39 0 0 -224 c0
-195 -2 -225 -16 -230 -9 -3 -18 -6 -20 -6 -3 0 -4 79 -2 175 2 114 -1 174 -7
172 -6 -2 -11 -74 -13 -180 l-2 -176 -30 -6 c-40 -9 -40 -29 0 -21 43 8 38
-12 -15 -64 l-45 -44 0 -153 c0 -92 -4 -153 -10 -153 -5 0 -34 11 -65 24 -49
22 -55 28 -55 55 0 24 -7 34 -30 46 l-30 16 0 -176 c0 -96 -2 -175 -5 -175 -3
0 -32 11 -65 24 l-60 25 2 -302 3 -301 63 -20 62 -20 0 -212 0 -211 73 -19 72
-19 3 -37 c2 -28 -3 -46 -22 -71 -14 -19 -26 -41 -26 -50 0 -8 -3 -17 -8 -19
-4 -2 -28 -48 -54 -103 -41 -89 -45 -105 -39 -145 4 -25 24 -78 45 -118 l39
-73 -26 -48 c-41 -75 -52 -140 -33 -204 13 -44 27 -64 72 -106 31 -28 60 -51
65 -51 8 0 15 43 24 153 6 68 5 77 -10 77 -9 0 -19 -9 -22 -20 -3 -11 -9 -20
-14 -20 -5 0 -9 -10 -9 -22 l-1 -23 -20 25 c-27 32 -21 87 16 140 23 34 32 39
64 39 20 0 82 11 138 26 l102 27 34 52 c81 121 162 191 256 222 45 14 56 23
70 55 l16 38 51 -49 51 -49 -36 -3 -36 -3 -3 -120 -3 -120 -92 -77 -92 -76 -5
75 -5 75 -28 -25 c-20 -20 -27 -35 -27 -64 0 -30 -6 -44 -30 -65 -23 -20 -30
-35 -30 -62 0 -39 -7 -48 -83 -110 -37 -31 -52 -37 -73 -32 l-26 7 7 92 c3 51
9 100 11 110 3 10 0 17 -9 17 -8 0 -17 9 -20 20 -3 13 -14 20 -31 20 -28 0
-46 -25 -46 -64 0 -18 -6 -25 -22 -28 -22 -3 -24 -10 -33 -118 -7 -70 -7 -120
-2 -127 5 -7 29 -13 53 -13 39 0 44 -3 44 -22 0 -13 9 -42 20 -65 l19 -43 164
0 c137 0 166 -3 171 -15 7 -20 56 -20 56 0 0 13 47 15 363 15 l363 0 74 -75
c41 -41 80 -75 88 -75 7 0 27 -7 44 -16 28 -15 32 -15 40 0 7 13 27 16 96 16
l88 0 49 -50 c31 -31 58 -50 72 -50 13 0 23 3 23 7 0 3 -44 51 -98 105 l-97
98 -62 0 -63 0 0 40 0 40 53 0 52 0 330 -330 330 -330 57 57 57 56 57 -18 c60
-19 165 -24 227 -12 30 6 41 16 57 47 11 21 29 41 40 45 31 10 80 55 80 74 0
9 53 69 118 134 l117 117 81 0 80 0 39 40 c40 40 94 57 81 25 -4 -11 2 -15 27
-15 25 0 42 9 67 35 l34 35 462 0 c508 0 485 -3 512 61 14 35 0 54 -72 104
l-56 38 0 131 c0 123 -1 132 -21 145 -21 12 -18 15 51 52 103 56 157 95 221
159 104 103 128 184 92 311 -12 45 -14 62 -5 68 8 4 10 30 6 76 -4 57 -9 73
-27 87 -30 24 -41 18 -45 -25 -2 -20 -8 -37 -14 -37 -6 0 -9 -20 -6 -50 1 -28
2 -50 0 -50 -2 0 -12 5 -23 10 -13 8 -19 21 -19 46 0 27 -5 36 -24 44 -17 6
-26 18 -28 37 -2 21 -12 32 -38 45 -19 9 -39 13 -44 8 -10 -9 -12 -128 -2
-137 3 -4 6 -34 6 -68 0 -62 0 -63 31 -69 17 -3 35 -3 41 0 15 10 55 -4 87
-32 41 -34 41 -75 2 -135 -69 -103 -321 -249 -518 -300 -104 -26 -110 -25
-117 15 -4 18 -15 41 -26 51 -11 10 -20 29 -20 42 0 18 5 23 25 23 13 0 28 -6
32 -14 12 -20 74 -9 80 15 6 22 34 34 43 18 11 -16 50 -1 50 20 0 25 11 33 27
19 10 -8 19 -6 39 13 13 12 23 28 21 34 -4 12 29 46 37 38 10 -10 47 30 42 44
-7 16 14 53 30 53 6 0 19 25 29 55 13 38 24 54 35 52 27 -4 22 37 -8 58 -25
18 -43 20 -217 20 -214 -1 -383 -18 -777 -82 -24 -3 -43 -14 -53 -29 -15 -23
-14 -24 10 -24 20 0 25 -5 25 -25 0 -15 -7 -39 -15 -55 l-16 -30 -307 0 c-170
0 -312 4 -318 9 -9 9 -144 -19 -144 -30 0 -3 50 -3 111 -2 76 3 115 0 125 -8
11 -9 18 -9 26 -1 9 9 89 12 275 12 240 0 263 -2 271 -17 5 -10 7 -24 5 -30
-7 -19 8 -16 33 8 13 12 42 25 66 29 54 10 399 7 416 -3 20 -13 14 -31 -30
-90 l-43 -56 -147 -1 c-85 0 -148 -4 -148 -9 0 -6 72 -11 165 -13 l165 -3 32
-33 c32 -31 33 -36 36 -126 4 -107 -9 -144 -61 -176 -29 -18 -51 -20 -234 -20
l-203 0 0 -30 c0 -33 1 -34 48 -21 l33 10 -2 -92 -2 -92 452 0 c391 0 453 2
461 15 8 13 -44 15 -446 18 -410 2 -455 4 -450 18 3 9 6 36 6 60 l0 44 92 0
91 0 -23 25 c-13 14 -20 25 -16 25 5 0 21 -11 38 -25 l30 -25 244 0 c134 0
244 2 244 4 0 5 -141 111 -167 124 -12 7 -46 13 -75 13 -46 1 -49 2 -18 8 l35
6 -28 21 c-20 17 -27 31 -27 58 0 31 4 36 28 42 255 55 557 227 642 366 30 49
27 109 -7 143 -15 15 -40 33 -54 41 -15 7 -29 20 -32 29 -10 24 -27 17 -27
-11 0 -22 -3 -24 -22 -19 -13 4 -26 10 -29 14 -7 6 -20 211 -14 211 2 0 16 -5
30 -12 18 -8 25 -19 25 -40 0 -21 6 -31 25 -38 14 -5 25 -13 24 -17 -7 -44 3
-64 42 -82 l41 -20 -4 55 c-2 42 0 53 11 49 10 -4 12 5 10 39 -3 32 -1 42 9
39 12 -5 15 -15 26 -82 5 -25 3 -32 -8 -28 -17 7 -12 -66 10 -132 18 -58 18
-95 -3 -138 -42 -88 -198 -215 -361 -292 -39 -19 -72 -37 -72 -40 0 -3 16 -17
35 -31 l34 -25 1 -132 0 -132 65 -46 c67 -48 78 -70 49 -100 -14 -14 -68 -15
-484 -15 -257 1 -479 -2 -493 -5 l-26 -7 6 68 6 67 -37 -6 -38 -6 4 129 c2
103 6 131 18 137 8 4 98 9 200 12 l185 6 3 28 3 27 -153 0 c-101 0 -161 4
-177 13 -43 22 -64 62 -69 128 -3 45 -7 57 -14 45 -7 -13 -25 -16 -88 -16
l-80 0 0 -179 c0 -142 -3 -181 -14 -190 -9 -7 -40 -11 -78 -9 l-63 3 -3 188
-2 187 -79 0 -78 0 -24 57 -25 58 -43 -58 -43 -57 -149 0 c-93 0 -149 -4 -149
-10 0 -6 60 -10 161 -10 l161 0 39 -39 39 -39 0 -101 0 -101 -34 -38 -34 -37
-309 -2 -308 -3 -27 50 -28 50 -117 0 -118 0 -27 -50 -28 -50 -70 0 c-61 0
-71 3 -81 22 l-12 22 -8 -22 c-6 -15 -17 -22 -34 -22 -25 0 -35 -23 -15 -35 6
-3 10 -17 10 -31 0 -24 0 -24 105 -24 110 0 111 0 99 -47 -6 -22 -10 -23 -130
-23 l-124 0 0 54 c0 37 -4 56 -14 59 -9 4 -12 14 -9 26 5 19 1 21 -36 21 l-41
0 0 -75 c0 -64 3 -76 20 -85 18 -10 20 -21 20 -125 0 -63 -2 -115 -5 -115 -2
0 -20 8 -40 17 l-35 17 0 81 0 82 -40 18 -40 18 0 84 0 83 -70 0 -70 0 0 53
-1 52 -14 -32 c-21 -48 -68 -73 -140 -73 -33 0 -92 -9 -130 -19 -64 -18 -258
-60 -347 -75 l-38 -7 0 -84 c0 -69 -3 -85 -15 -85 -12 0 -15 16 -15 83 l0 83
-82 -9 c-52 -5 -131 -4 -212 2 -71 6 -134 7 -140 3 -6 -5 -18 -8 -26 -8 -16 1
-17 19 -10 146 3 61 5 65 29 70 22 4 26 11 29 48 3 37 6 42 28 42 25 0 25 0
19 -77 -10 -134 -12 -141 -43 -145 l-27 -4 30 -14 c19 -9 83 -15 180 -18 122
-3 174 0 275 17 69 12 145 28 170 36 l45 14 -47 0 -48 1 0 264 0 263 38 5 c20
2 119 4 219 3 204 -1 220 -6 255 -75 l17 -33 3 54 3 54 240 0 240 0 3 -23 c2
-12 -4 -47 -13 -77 l-16 -55 -134 0 c-181 0 -179 -19 3 -22 l137 -3 -1 -38
c-1 -31 1 -37 15 -32 9 4 46 18 82 31 l65 25 56 97 c53 94 57 97 93 100 62 5
80 -4 108 -56 l26 -48 98 32 c126 42 133 47 133 88 0 19 8 40 18 49 13 12 17
26 14 46 -3 23 2 33 23 47 34 22 33 77 -2 82 -13 2 -23 8 -23 15 0 8 -3 8 -12
-1 -7 -7 -33 -12 -60 -12 l-47 0 -3 -107 -3 -108 -57 -3 c-42 -2 -58 1 -59 10
0 7 -1 56 -2 108 l-2 95 -57 3 c-53 3 -57 5 -67 34 -24 70 -56 64 404 72 229
4 420 4 425 1 6 -3 10 -53 10 -111 l0 -104 35 0 c44 0 136 20 153 32 8 7 12
39 12 94 l0 84 170 0 c161 0 170 -1 170 -19 0 -11 -5 -32 -10 -47 -19 -49 -3
-53 122 -32 290 47 435 61 663 64 l230 3 -4 42 c-3 37 -1 41 15 35 18 -6 18
-5 1 8 -9 7 -24 37 -33 66 -16 53 -16 53 10 78 l26 26 72 -23 c40 -13 79 -26
86 -28 9 -4 12 10 12 52 0 54 1 57 23 52 12 -3 50 -9 85 -13 55 -6 65 -4 76
12 12 16 11 25 -9 64 -13 25 -39 69 -59 99 l-37 55 75 75 76 76 -105 105 -105
105 0 52 0 52 60 12 60 12 0 381 c0 209 -4 387 -9 394 -6 10 -31 4 -112 -29
-57 -22 -109 -43 -116 -46 -9 -4 -13 20 -15 88 -2 51 -7 94 -13 96 -6 2 -9
-24 -7 -69 3 -57 1 -73 -12 -80 -22 -13 -23 -103 -1 -94 8 3 22 9 30 12 13 5
15 -9 15 -92 l0 -98 -54 -56 c-50 -52 -54 -59 -60 -117 -5 -42 -3 -63 4 -63 5
0 10 12 10 26 0 17 18 44 55 83 l55 58 0 135 0 136 30 11 30 10 0 -142 0 -143
-55 -54 c-40 -40 -55 -62 -55 -82 0 -15 5 -28 11 -28 5 0 35 23 65 51 l54 52
0 178 c0 99 3 179 8 179 4 0 6 -91 4 -202 -3 -196 -3 -204 -25 -220 -27 -22
-10 -24 21 -2 22 15 22 20 22 223 l0 208 25 11 c14 7 30 12 35 12 6 0 10 -133
10 -344 l0 -345 -43 -8 -42 -9 -3 118 c-3 116 -3 118 -25 113 -12 -3 -82 -18
-155 -34 -73 -16 -136 -32 -139 -35 -18 -17 17 -14 141 14 75 16 140 30 145
30 5 0 11 -47 13 -105 l3 -104 -40 -6 c-77 -12 -115 -26 -115 -40 0 -8 7 -15
15 -15 12 0 15 -14 15 -70 0 -38 -2 -70 -4 -70 -15 0 -55 85 -58 122 -3 41 -5
44 -27 38 l-25 -6 24 -22 c13 -12 21 -25 17 -28 -3 -4 -18 9 -33 27 -16 19
-53 59 -83 89 -31 30 -57 60 -57 65 -1 6 -2 14 -3 19 0 5 -7 4 -14 -2 -7 -6
-18 -7 -26 -2 -10 6 -1 12 30 20 24 7 50 14 57 16 9 3 12 53 12 209 l0 206 46
19 c58 25 62 25 67 -2 2 -13 5 27 6 88 1 106 2 111 25 122 17 7 25 21 28 46 3
28 1 33 -9 24 -7 -6 -13 -21 -13 -34 0 -13 -9 -28 -20 -34 -17 -9 -20 -21 -20
-76 0 -65 0 -65 -35 -80 -19 -7 -37 -14 -40 -14 -3 0 -5 131 -5 290 0 247 -2
291 -15 296 -8 3 -102 -39 -210 -95 l-195 -100 0 104 c0 57 -4 107 -10 110 -5
3 -19 1 -30 -5 -17 -9 -20 -21 -20 -69 0 -47 -4 -60 -17 -65 -10 -3 -24 -9
-30 -12 -10 -4 -13 10 -13 55 0 70 -10 76 -67 41 l-33 -20 0 -125 0 -125 -32
-20 -33 -20 -40 40 c-53 52 -71 52 -20 0 30 -31 36 -43 27 -52 -12 -12 -16
-10 -107 73 -22 20 -53 40 -70 43 -27 7 -23 0 45 -69 61 -61 72 -77 60 -85 -8
-5 -20 -10 -25 -10 -15 0 -185 173 -185 188 0 15 7 15 109 -3 47 -8 86 -14 87
-12 3 3 -28 212 -33 216 -2 3 -38 -30 -81 -72 -43 -42 -80 -77 -83 -77 -4 0
-9 13 -12 28 -3 15 -18 40 -32 56 -15 16 -31 40 -36 54 -9 24 -8 25 26 19 l35
-6 -6 52 -6 52 37 13 c41 16 53 35 34 58 -20 24 -146 94 -234 130 l-80 33 -10
66 -10 65 -46 -46 -47 -47 -104 36 c-57 19 -122 39 -143 42 -34 7 -62 29 -185
151 l-146 144 -129 -130 c-104 -104 -135 -130 -157 -130 -16 0 -28 3 -28 7 0
4 71 79 157 165 l158 158 141 -141 c125 -125 142 -138 154 -124 12 14 -4 34
-136 166 -82 82 -153 149 -159 149 -6 0 -35 -25 -65 -55 -37 -38 -62 -55 -79
-55 -23 0 -16 10 59 85 l85 85 167 -167 c92 -92 170 -165 172 -162 3 3 -72 82
-167 177 l-172 172 -95 -95z m329 -372 c2 -2 1 -6 -2 -10 -4 -3 -59 45 -122
108 l-116 114 -97 -103 c-53 -56 -101 -102 -107 -102 -5 0 40 50 100 110 l110
110 115 -112 c63 -62 116 -114 119 -115z m-464 167 c-15 -17 -31 -20 -94 -20
l-76 0 25 20 c19 15 41 20 94 20 68 0 69 0 51 -20z m-380 -99 c-50 -49 -101
-92 -115 -96 -18 -5 1 19 70 89 57 58 103 96 115 96 15 0 -3 -23 -70 -89z
m155 85 c0 -7 -151 -151 -163 -155 -7 -2 24 33 68 78 70 71 95 91 95 77z
m-255 -119 c-41 -42 -78 -77 -82 -77 -4 0 28 36 72 80 43 44 80 78 82 76 1 -1
-31 -37 -72 -79z m345 -1 c-14 -13 -160 -29 -160 -17 0 17 44 30 105 31 60 0
67 -2 55 -14z m610 -68 c94 -18 523 -164 608 -207 95 -47 122 -63 122 -72 0
-4 -35 -19 -77 -34 -124 -44 -164 -69 -208 -129 -22 -30 -43 -55 -46 -56 -4 0
-29 37 -57 83 -50 82 -135 187 -111 138 10 -22 38 -123 39 -144 0 -5 -10 -1
-22 7 -12 9 -29 16 -37 16 -8 0 -32 15 -55 33 -50 41 -155 101 -163 94 -3 -3
19 -18 49 -33 29 -14 72 -42 95 -61 23 -18 58 -40 77 -48 19 -8 37 -19 41 -25
22 -36 34 24 15 76 -17 44 -5 38 28 -13 29 -45 40 -81 57 -186 l6 -37 -38 20
c-21 12 -54 38 -73 59 -19 21 -55 52 -80 68 -25 17 -60 49 -77 71 -18 22 -47
51 -65 63 -22 16 -10 -2 35 -51 38 -41 84 -84 103 -96 39 -24 140 -123 166
-163 10 -14 18 -21 18 -14 0 6 -4 15 -10 18 -18 11 -10 23 12 17 20 -5 21 -3
15 51 -4 30 -9 64 -12 74 -3 10 8 -10 25 -45 18 -37 33 -87 37 -124 l6 -62
-32 23 c-47 33 -48 20 -2 -17 43 -35 51 -30 45 28 l-4 35 15 -33 c16 -35 12
-72 -7 -72 -6 0 -19 -7 -28 -15 -14 -13 -20 -11 -51 14 -18 15 -48 36 -65 46
-17 10 -39 30 -48 46 l-16 28 45 -25 c25 -14 50 -24 56 -22 10 3 -129 78 -145
78 -18 0 84 -106 141 -146 63 -45 72 -57 53 -69 -6 -4 -8 -10 -5 -15 6 -9 -41
-50 -58 -50 -6 0 -7 3 -4 7 11 11 -54 64 -111 90 -98 46 -223 22 -302 -57 -46
-46 -72 -102 -78 -167 -2 -29 -9 -53 -15 -53 -16 0 2 101 29 157 47 97 140
157 244 157 101 0 134 -7 179 -38 22 -16 41 -31 41 -35 0 -3 7 -14 14 -24 12
-15 17 -16 34 -6 11 7 18 19 15 26 -3 7 0 13 7 13 6 0 8 5 4 11 -4 7 -13 1
-23 -15 l-17 -26 -40 41 c-55 57 -125 91 -202 97 l-63 5 31 18 c58 36 29 29
-46 -11 -42 -22 -82 -40 -89 -40 -26 0 -114 -92 -142 -148 -24 -49 -28 -68
-27 -139 l0 -83 -35 -2 -36 -1 32 -4 c22 -3 41 3 62 18 32 24 62 20 60 -8 -1
-17 -2 -17 -6 0 -2 9 -9 17 -14 17 -5 0 -9 -8 -9 -17 0 -14 -2 -15 -9 -4 -12
18 -32 5 -24 -16 4 -9 2 -14 -3 -10 -5 3 -57 8 -114 12 -113 7 -160 19 -160
42 0 8 -15 42 -34 76 -22 40 -38 88 -46 136 -12 71 -15 76 -75 140 -35 36 -73
78 -85 94 -12 15 -29 27 -39 27 -46 0 -83 24 -120 79 -59 86 -139 260 -157
340 -15 66 -15 72 2 108 18 36 23 39 104 57 75 18 123 20 410 20 268 -1 336
-4 387 -17 81 -21 169 -66 235 -120 79 -64 91 -66 25 -4 -61 58 -168 120 -227
132 -19 4 -42 11 -50 16 -18 11 88 3 170 -13z m-1079 -57 c-11 -15 -111 -117
-222 -225 -148 -144 -206 -195 -218 -190 -9 3 -43 9 -75 13 l-59 6 -13 43
c-10 37 -10 44 2 49 28 11 159 -4 193 -21 l34 -18 186 186 c102 102 187 186
189 186 2 0 -6 -13 -17 -29z m-87 -152 c-38 -38 -74 -67 -80 -65 -6 2 -28 -13
-48 -33 l-37 -38 23 -16 c22 -15 25 -13 121 81 53 53 97 90 97 81 0 -9 -74
-89 -165 -178 l-164 -162 -31 22 c-16 13 -30 25 -30 28 0 3 84 90 188 194 128
129 188 182 190 171 3 -10 -23 -44 -64 -85z m-534 -140 c0 -3 -22 -15 -48 -27
-27 -12 -66 -37 -88 -56 -43 -37 -104 -140 -104 -175 0 -24 -12 -27 -29 -7
-19 23 23 118 80 180 57 62 167 125 181 104 4 -7 8 -16 8 -19z m629 24 c-16
-3 -74 -52 -164 -143 -77 -77 -143 -140 -146 -140 -4 0 -9 6 -12 14 -4 9 44
63 126 145 132 130 132 131 177 129 25 0 34 -3 19 -5z m1681 -108 c0 -11 -14
7 -31 40 -7 13 -3 12 10 -5 11 -14 21 -29 21 -35z m-20 -20 c0 -9 -11 -10 -50
-2 -41 8 -48 12 -39 23 6 8 22 14 36 14 16 0 22 4 18 13 -4 6 3 1 14 -12 12
-13 21 -29 21 -36z m698 -146 c-19 -12 -24 147 -6 169 11 13 13 1 16 -73 2
-64 -1 -91 -10 -96z m-2966 154 c2 -12 -12 -28 -42 -48 -58 -39 -99 -100 -108
-158 l-7 -46 -24 18 c-23 18 -24 20 -11 65 17 63 61 121 117 156 54 34 70 37
75 13z m-612 -203 c0 -133 -4 -210 -10 -210 -6 0 -10 77 -10 210 0 133 4 210
10 210 6 0 10 -77 10 -210z m2919 138 c1 -16 5 -28 9 -28 14 0 32 -48 32 -85
0 -41 -6 -43 -36 -14 -19 17 -21 26 -13 46 6 17 6 45 -1 81 -12 65 -12 74 0
47 5 -11 9 -32 9 -47z m551 -19 l0 -70 22 15 c12 9 26 16 30 16 5 0 8 -36 8
-80 0 -74 11 -105 23 -61 3 12 73 53 208 122 112 57 207 106 211 107 5 2 8
-221 8 -496 l0 -499 -62 -13 c-59 -13 -63 -13 -107 13 l-46 26 -3 139 -3 140
103 40 c56 22 104 46 106 52 5 15 -7 11 -130 -39 l-93 -37 -3 -141 -3 -141
-82 44 c-45 24 -90 54 -100 67 -68 84 -97 111 -160 155 -40 27 -103 65 -142
85 -38 19 -79 45 -90 58 l-20 24 25 -21 c14 -12 53 -36 88 -53 34 -17 87 -48
118 -67 l56 -36 164 67 c147 60 164 70 164 91 0 22 -2 23 -27 12 -16 -7 -35
-21 -44 -31 -10 -13 -23 -18 -33 -14 -20 8 -52 -7 -80 -35 -13 -14 -21 -17
-26 -8 -5 9 -16 8 -41 -5 -19 -10 -37 -23 -41 -30 -8 -14 -79 -14 -77 0 0 6
104 53 231 105 209 87 231 98 243 126 32 77 36 76 -84 27 -92 -39 -111 -51
-124 -77 -13 -28 -34 -40 -158 -93 l-144 -62 -86 82 c-55 53 -87 90 -88 105
l-1 22 -41 -21 -41 -21 28 -31 c16 -17 0 -5 -35 26 -34 32 -86 73 -114 92 -29
19 -47 35 -42 35 6 0 43 -25 83 -55 l73 -55 154 78 155 77 0 140 0 140 28 17
c15 10 30 18 35 18 4 0 7 -32 7 -71z m-3330 -6 c109 -62 718 -415 758 -439 20
-13 22 -22 22 -90 l0 -76 35 26 c45 34 149 83 195 90 22 4 11 -3 -30 -18 -68
-25 -132 -58 -165 -87 -11 -9 -49 -31 -85 -49 -36 -18 -96 -53 -135 -78 -51
-32 -89 -49 -140 -59 -141 -28 -298 -129 -421 -270 -32 -37 -63 -71 -69 -75
-5 -4 -70 -8 -142 -8 l-133 0 0 43 c0 37 -6 48 -40 82 l-40 39 0 -236 c0 -195
3 -238 14 -245 12 -6 15 -45 18 -190 3 -167 2 -182 -14 -177 -10 3 -22 -3 -31
-16 -13 -19 -17 -19 -53 -7 -44 16 -40 -2 -36 177 1 64 6 90 15 90 9 0 12 42
10 182 -2 165 -4 184 -22 207 l-20 26 0 -407 -1 -406 50 -13 c30 -8 50 -18 50
-27 0 -9 -6 -12 -17 -7 -10 3 -39 11 -65 17 l-48 11 0 439 c0 436 0 439 20
428 20 -11 20 -8 20 155 0 91 2 165 4 165 2 0 122 -50 266 -110 145 -61 264
-110 266 -110 2 0 4 4 4 10 0 5 -16 17 -37 25 l-36 15 21 23 c22 23 22 29 22
333 l0 311 35 10 35 11 30 -64 c17 -35 34 -64 38 -64 4 0 23 13 42 28 l34 29
-21 44 c-12 24 -19 47 -16 52 9 15 23 6 41 -29 l18 -36 29 24 c24 21 26 27 16
45 -9 19 -8 23 10 28 11 4 22 5 23 3 1 -1 15 -24 29 -50 18 -31 43 -57 72 -74
25 -14 45 -27 45 -29 0 -2 -52 -55 -115 -118 l-115 -114 0 -59 0 -59 -119
-119 c-66 -66 -117 -124 -114 -129 3 -5 142 127 309 294 166 166 301 306 298
311 -3 5 -24 18 -46 29 -40 21 -42 21 -55 3 -13 -18 -15 -18 -60 6 -32 17 -57
41 -80 78 -32 49 -38 54 -65 50 -24 -4 -31 0 -38 18 -5 13 -23 30 -40 39 l-32
16 3 -48 c3 -37 0 -49 -12 -51 -17 -3 -29 40 -29 100 0 22 -8 32 -40 48 -21
11 -42 20 -46 20 -3 0 -4 -45 -2 -100 l3 -100 -29 -10 c-16 -5 -31 -10 -32
-10 -2 0 -4 18 -4 39 0 22 -4 43 -10 46 -6 4 -10 -13 -10 -44 0 -28 -4 -51
-10 -51 -5 0 -10 14 -10 30 0 17 -2 30 -4 30 -2 0 -12 3 -21 7 -15 5 -17 1
-13 -32 4 -31 1 -39 -19 -48 -28 -12 -31 -31 -3 -24 10 3 24 -1 31 -9 16 -20
29 -17 29 6 0 11 5 20 10 20 13 0 14 -607 1 -615 -6 -3 -11 19 -13 52 -2 46
-7 59 -20 61 -15 3 -18 -5 -18 -52 0 -42 4 -57 18 -65 12 -7 14 -13 7 -20 -8
-8 -26 -4 -63 11 l-52 22 0 282 c0 178 4 285 10 289 7 4 10 -93 10 -284 0
-187 4 -291 10 -291 7 0 10 172 10 496 0 272 3 493 8 491 4 -3 54 -31 112 -64z
m655 17 c42 -26 89 -85 81 -99 -4 -6 -23 -13 -42 -17 -20 -4 -38 -13 -41 -20
-3 -8 -25 -19 -50 -26 -39 -9 -44 -14 -39 -32 4 -12 9 -34 13 -51 8 -42 -13
-21 -25 25 -9 37 -11 37 -76 25 -54 -11 -39 9 19 24 40 10 44 13 36 34 -16 44
-21 77 -12 77 6 0 15 -19 22 -42 6 -24 13 -46 15 -50 5 -8 94 21 94 31 0 17
-58 61 -89 67 -32 7 -51 33 -51 71 0 23 100 11 145 -17z m2079 17 c10 -8 16
-22 14 -35 -4 -31 -18 -32 -36 -2 l-14 25 21 -25 c15 -19 21 -21 21 -9 0 18
-33 52 -42 43 -3 -3 -9 -1 -13 5 -9 15 27 14 49 -2z m-2238 -36 c10 -37 9 -41
-18 -61 -18 -13 -33 -37 -40 -65 -12 -43 -26 -55 -70 -55 -27 0 -23 67 5 121
19 36 86 97 107 99 3 0 11 -18 16 -39z m2183 -31 c0 -43 -16 -103 -19 -70 0
12 -3 11 -11 -3 -6 -10 -8 -26 -4 -35 14 -37 -17 7 -40 57 -27 58 -19 64 33
24 l35 -26 -6 63 c-3 40 -2 58 4 49 5 -8 8 -34 8 -59z m-1745 -160 c-109 -110
-203 -200 -208 -200 -6 0 75 86 179 191 125 126 181 189 165 184 -14 -4 -104
-85 -200 -181 -96 -96 -180 -174 -186 -174 -5 0 -15 5 -22 12 -10 10 19 44
135 160 81 81 144 148 140 148 -4 0 -41 -9 -83 -21 -41 -11 -78 -18 -81 -15
-3 3 1 8 8 11 31 12 344 92 348 89 2 -2 -85 -94 -195 -204z m1826 143 c-11
-17 -11 -17 -6 0 3 10 6 24 7 30 0 9 2 9 5 0 3 -7 0 -20 -6 -30z m-1547 -27
c-84 -27 -154 -103 -179 -196 -9 -30 -13 -37 -13 -20 -2 88 131 230 214 229
11 0 1 -6 -22 -13z m1626 -54 c-28 -86 -107 -195 -164 -224 -11 -6 5 16 35 47
30 32 62 66 71 75 19 20 58 120 60 153 1 17 2 18 6 4 2 -9 -1 -34 -8 -55z
m-117 6 c-16 -24 -51 -63 -77 -86 -30 -29 -43 -48 -38 -56 4 -6 1 -5 -7 4 -9
9 -21 15 -28 12 -6 -2 -12 2 -12 8 0 7 8 10 20 7 14 -3 33 10 69 49 28 30 51
58 52 62 0 4 4 6 9 5 4 -1 13 9 20 22 7 14 15 23 18 21 2 -3 -10 -24 -26 -48z
m-1417 32 c-3 -5 -17 -10 -31 -10 -55 0 -129 -64 -159 -137 -47 -112 -24 -235
61 -320 28 -29 65 -55 80 -58 58 -13 71 -26 19 -19 -93 11 -165 68 -208 163
-27 60 -29 168 -4 231 23 60 92 127 148 145 53 16 103 19 94 5z m-609 -63
l-45 -46 6 32 c3 18 8 34 10 37 6 7 67 28 71 25 2 -2 -17 -23 -42 -48z m2114
14 c0 -12 -20 -36 -20 -24 0 6 -3 19 -6 27 -5 12 -2 15 10 10 9 -3 16 -9 16
-13z m-180 -41 c-6 -11 -13 -20 -16 -20 -2 0 0 9 6 20 6 11 13 20 16 20 2 0 0
-9 -6 -20z m315 -60 c43 -44 77 -82 74 -84 -3 -3 -43 33 -89 79 -47 47 -80 85
-75 85 6 0 46 -36 90 -80z m-2474 15 c26 -24 49 -35 69 -35 20 0 30 -5 30 -15
0 -8 -5 -15 -12 -15 -17 0 -158 82 -158 92 0 19 35 6 71 -27z m930 8 c17 -15
38 -42 45 -60 22 -52 16 -62 -8 -14 -22 44 -68 81 -102 81 -10 0 -35 -10 -54
-22 -20 -12 -32 -16 -28 -9 13 20 69 51 93 51 12 0 36 -12 54 -27z m1529 -48
c41 -41 69 -75 63 -75 -13 0 -153 130 -153 142 0 18 20 4 90 -67z m-854 52
c-45 -28 -99 -84 -122 -126 -14 -25 -22 -35 -18 -21 10 39 60 102 106 132 22
16 44 28 47 27 3 0 -3 -6 -13 -12z m494 -61 c0 -3 -4 -8 -10 -11 -5 -3 -10 -1
-10 4 0 6 5 11 10 11 6 0 10 -2 10 -4z m-1020 -48 c0 -10 16 -63 35 -119 19
-56 35 -103 35 -104 0 -2 -19 -1 -42 2 -53 5 -78 -9 -62 -34 18 -29 72 -36
242 -30 l162 6 27 -41 28 -41 -23 -15 c-12 -8 -22 -19 -22 -24 0 -5 13 0 29
11 28 20 28 20 46 0 10 -10 47 -34 82 -51 67 -33 153 -43 217 -25 l30 8 -32
-32 -32 -33 -165 -4 c-203 -5 -374 16 -480 58 -38 16 -85 31 -102 35 -18 4
-33 12 -33 19 0 7 -16 27 -35 46 -34 33 -50 33 -21 1 8 -9 16 -27 18 -40 3
-27 19 -20 -186 -75 -54 -14 -121 -26 -148 -26 -48 0 -114 -25 -171 -65 -30
-21 -44 -19 -81 12 -17 14 -55 37 -84 50 -59 26 -62 27 -62 15 0 -5 18 -17 40
-27 22 -10 46 -25 54 -34 13 -15 9 -16 -52 -16 -73 -1 -142 -12 -142 -23 0 -4
49 -7 108 -7 106 0 111 -1 185 -38 41 -22 104 -62 139 -91 99 -82 326 -332
397 -436 35 -52 75 -107 89 -122 l25 -27 -24 -5 c-13 -3 -51 -7 -84 -11 -69
-7 -368 -71 -560 -120 -194 -49 -256 -59 -355 -52 -162 12 -276 71 -417 216
-46 46 -81 86 -79 88 2 2 16 -1 31 -7 29 -11 334 -27 324 -17 -3 4 -63 13
-135 21 -153 18 -221 37 -291 79 -44 26 -53 36 -53 59 0 21 -6 29 -24 34 -14
3 -29 3 -35 0 -10 -7 -104 124 -120 167 l-9 24 121 -1 c112 -1 126 1 171 24
27 14 51 31 54 39 3 10 0 11 -17 2 -29 -16 -26 -1 7 45 46 63 134 137 210 177
76 40 202 77 262 77 37 0 156 42 175 62 7 7 -2 9 -28 5 -34 -5 -37 -4 -26 9
20 24 139 81 206 98 34 9 108 19 165 22 97 6 106 5 158 -20 127 -60 252 -11
318 123 23 48 27 67 26 139 -1 49 2 78 7 70 5 -7 9 -21 9 -30z m841 14 c54
-28 102 -83 114 -132 3 -16 -2 -11 -16 15 -43 80 -102 122 -187 132 -61 7
-119 -9 -179 -51 -116 -80 -138 -243 -45 -339 17 -17 21 -26 10 -22 -9 4 -29
25 -45 48 -25 38 -28 50 -28 124 0 74 3 85 30 124 87 122 227 163 346 101z
m182 -24 c22 17 56 20 74 6 17 -12 16 -13 -4 -9 -15 2 -23 -1 -23 -10 0 -7 -7
-15 -15 -19 -19 -7 -19 -21 0 -40 9 -9 11 -17 5 -21 -5 -3 -10 -1 -10 5 0 7
-13 4 -32 -9 -29 -18 -34 -27 -40 -80 -6 -52 -40 -141 -53 -141 -3 0 4 19 16
42 32 63 37 153 10 212 -12 28 -16 46 -9 44 6 -2 16 -18 22 -35 15 -44 21 -47
50 -28 20 13 24 21 16 35 -5 9 -7 20 -5 24 3 3 2 4 -2 1 -7 -5 -32 25 -32 40
0 6 4 2 10 -8 7 -12 15 -15 22 -9z m272 -31 c68 -46 139 -116 161 -158 9 -18
37 -40 75 -59 228 -115 343 -240 385 -416 21 -91 14 -265 -14 -344 -22 -63
-101 -224 -107 -218 -2 2 0 22 5 43 25 110 40 207 39 256 -1 47 -2 49 -8 19
-6 -34 -6 -33 -18 25 -12 67 -57 175 -72 175 -5 0 -3 -12 4 -28 34 -67 50
-157 49 -277 0 -102 -5 -132 -27 -200 -14 -44 -42 -107 -62 -140 -36 -60 -124
-157 -159 -177 -17 -9 -18 -7 -14 21 7 46 -10 49 -18 4 -4 -21 -11 -48 -15
-60 l-8 -23 -38 22 c-21 12 -78 60 -127 106 -48 46 -91 81 -94 78 -3 -3 37
-49 89 -101 80 -82 109 -104 201 -153 59 -31 120 -65 134 -77 l27 -21 -104
-21 c-72 -14 -105 -17 -108 -9 -8 23 -31 26 -199 26 -168 0 -174 -1 -179 -21
-7 -26 -26 -22 -146 36 -120 57 -203 121 -317 244 -51 56 -95 99 -98 97 -7 -8
161 -198 228 -258 l61 -56 -59 -7 c-123 -14 -214 -9 -291 15 -70 22 -81 30
-195 140 -195 186 -276 279 -392 447 -37 54 -76 108 -87 121 -11 12 -18 22
-14 22 4 0 54 -21 112 -46 58 -26 108 -45 110 -42 2 2 -46 30 -108 63 -172 91
-225 128 -322 229 -49 51 -109 105 -132 120 -24 14 -43 31 -43 37 0 21 95 52
180 59 58 4 104 15 146 33 63 27 159 47 227 47 68 0 176 -47 299 -130 167
-113 152 -82 -19 39 -18 13 -32 25 -31 26 2 1 32 -1 68 -6 36 -5 160 -13 275
-19 131 -6 230 -15 262 -25 69 -21 158 -82 263 -182 l88 -83 98 -7 c65 -4 95
-3 91 4 -4 6 -30 13 -59 16 -73 7 -158 47 -215 100 -26 24 -85 72 -131 105
l-83 61 43 12 c24 6 100 12 170 13 70 0 124 3 122 6 -3 3 -27 10 -52 15 l-47
10 77 40 c42 22 75 41 74 43 -2 1 -46 -18 -97 -43 -81 -39 -103 -45 -158 -45
-35 0 -89 -7 -121 -15 -42 -11 -66 -12 -84 -5 -25 9 -26 11 -11 33 23 35 174
170 230 206 26 17 79 42 116 57 38 14 71 30 75 35 3 5 -7 4 -23 -2 -82 -31
-188 -69 -195 -69 -5 0 -5 8 1 18 5 9 12 43 16 74 7 57 8 58 46 68 21 6 43 18
48 28 6 9 11 13 11 9 0 -12 40 12 40 25 0 7 12 25 27 40 32 34 44 31 128 -25z
m-301 2 c13 -21 15 -34 8 -41 -7 -7 -15 1 -26 27 -18 43 -19 45 -8 45 4 0 16
-14 26 -31z m-2814 -224 l-50 -51 0 -97 c0 -82 -2 -95 -15 -91 -12 5 -15 29
-15 128 l0 122 45 44 c43 42 45 47 45 101 0 47 3 58 18 61 15 3 17 -7 20 -81
l3 -85 -51 -51z m2910 205 c0 -5 -5 -10 -11 -10 -5 0 -7 5 -4 10 3 6 8 10 11
10 2 0 4 -4 4 -10z m-713 -32 c-3 -8 -6 -5 -6 6 -1 11 2 17 5 13 3 -3 4 -12 1
-19z m-900 -10 c-3 -8 -6 -5 -6 6 -1 11 2 17 5 13 3 -3 4 -12 1 -19z m429 -15
c-9 -37 -57 -90 -89 -98 -25 -7 -103 22 -92 33 3 3 11 0 17 -6 16 -16 67 -15
96 2 28 15 62 64 62 90 0 11 3 17 6 13 3 -3 3 -19 0 -34z m887 23 c18 -7 41
-23 52 -36 18 -21 17 -20 -19 3 -75 51 -150 44 -205 -18 -53 -60 -49 -138 10
-195 24 -22 24 -22 1 -11 -70 36 -81 161 -19 219 54 51 118 64 180 38z m-426
-63 c-3 -10 -5 -4 -5 12 0 17 2 24 5 18 2 -7 2 -21 0 -30z m-916 -113 c-69 -3
-128 -5 -129 -4 -8 5 86 48 138 65 l55 17 31 -37 32 -36 -127 -5z m582 33 c-7
-2 -19 -2 -25 0 -7 3 -2 5 12 5 14 0 19 -2 13 -5z m91 -11 c3 -5 -8 -6 -25 -4
-16 2 -29 6 -29 8 0 8 49 4 54 -4z m-1894 -171 l0 -129 -40 15 -40 16 0 76 c0
73 1 76 37 113 20 21 38 38 40 38 2 0 3 -58 3 -129z m2220 85 c0 5 -5 15 -12
22 -6 6 -8 15 -4 19 4 4 12 -1 18 -12 6 -11 32 -41 57 -66 54 -52 113 -73 201
-72 l55 0 -44 -9 c-34 -8 -61 -6 -109 6 -67 16 -136 52 -127 66 2 4 -5 16 -17
26 -21 19 -21 19 -15 -1 6 -16 3 -15 -13 5 -31 38 -46 69 -16 35 14 -16 25
-25 26 -19z m470 -9 c0 -2 -12 -14 -27 -28 l-28 -24 24 28 c23 25 31 32 31 24z
m-95 -77 c-3 -5 -12 -10 -18 -10 -7 0 -6 4 3 10 19 12 23 12 15 0z m1210 -185
c141 -75 238 -141 292 -198 99 -105 447 -589 458 -638 l6 -26 -53 8 c-29 4
-125 20 -213 35 -141 23 -178 26 -305 21 -80 -4 -172 -11 -205 -17 -61 -11
-318 -38 -323 -35 -5 4 62 104 112 167 61 79 113 188 133 281 28 133 15 339
-28 436 -24 56 -24 56 9 33 15 -10 68 -40 117 -67z m585 -365 c0 -88 -1 -160
-3 -160 -2 0 -24 29 -50 64 l-47 64 0 88 0 88 45 -44 c25 -24 45 -40 45 -34 0
6 -16 26 -36 45 -35 34 -35 34 -12 41 60 17 58 23 58 -152z m-4366 -61 c54
-74 60 -105 19 -104 l-28 0 -3 -133 -3 -133 37 -15 c60 -25 64 -19 64 105 0
92 2 109 14 105 10 -4 16 3 18 21 l3 27 42 -34 c22 -18 59 -56 80 -83 22 -28
70 -78 106 -111 l67 -61 0 -102 c0 -55 -4 -101 -8 -101 -24 0 -109 35 -120 49
-19 24 -283 102 -300 89 -9 -8 -20 -8 -37 0 -20 9 -25 19 -25 46 0 26 -5 36
-20 41 -19 6 -20 15 -20 293 l0 287 34 -62 c18 -34 54 -90 80 -124z m4486 -14
l84 -85 -59 -60 c-33 -33 -62 -60 -66 -60 -4 0 -10 8 -13 17 -5 11 7 30 36 60
l42 43 -62 63 c-39 39 -62 71 -62 85 0 12 3 22 8 22 4 0 45 -38 92 -85z
m-4396 -1 c23 -9 23 -144 1 -144 -12 0 -15 -18 -15 -105 0 -108 -3 -115 -41
-95 -17 10 -19 22 -19 130 l0 120 26 -10 c14 -6 26 -10 27 -10 2 0 2 27 0 60
-1 33 -1 60 2 60 2 0 10 -3 19 -6z m1749 -386 c133 -169 260 -268 390 -303 49
-13 39 -14 -180 -14 -127 -1 -238 -4 -247 -7 -20 -8 -21 -53 -2 -99 15 -34 17
-35 70 -35 l55 0 3 -107 3 -108 63 -3 c38 -2 69 2 78 9 10 8 14 37 14 110 l0
99 65 0 c78 0 96 -19 52 -54 -20 -16 -27 -31 -27 -58 0 -23 -6 -38 -15 -42
-10 -3 -15 -19 -15 -45 0 -37 -3 -40 -37 -52 -21 -7 -74 -11 -117 -10 -72 2
-81 4 -105 30 -18 19 -25 36 -23 55 3 22 -18 61 -90 169 l-93 140 1 114 c0 62
-3 113 -7 113 -10 0 -22 -154 -14 -189 l7 -31 -57 0 -56 0 -57 -90 c-31 -49
-60 -90 -64 -90 -5 0 -8 31 -8 69 0 63 -2 71 -26 90 -25 19 -40 21 -195 21
-125 0 -168 -3 -172 -12 -10 -29 -20 7 -25 91 l-5 90 32 18 c68 37 71 45 16
38 -27 -4 -48 -5 -45 -2 15 15 302 98 420 122 160 32 209 29 255 -15 31 -30
140 -83 158 -77 6 2 -14 17 -44 34 -29 18 -67 45 -83 62 -31 33 -29 37 29 44
17 2 31 5 32 6 1 0 31 -36 66 -81z m-1928 -90 c0 -58 -3 -73 -15 -73 -12 0
-16 -16 -18 -72 l-3 -72 50 33 c75 51 143 71 232 69 81 -1 128 -18 190 -70
l33 -28 -35 -7 -34 -6 39 1 c36 2 39 0 42 -29 3 -30 1 -32 -65 -58 -85 -33
-135 -75 -196 -166 -27 -38 -51 -70 -55 -70 -3 0 -14 26 -24 58 -10 31 -21 62
-23 68 -2 7 16 20 41 29 25 10 46 23 46 30 0 7 15 18 33 25 75 28 107 44 107
52 0 5 -15 0 -34 -11 -18 -12 -41 -21 -51 -21 -23 0 -75 -32 -75 -46 0 -7 -11
-15 -24 -18 -13 -3 -32 -9 -41 -12 -13 -5 -16 -2 -13 17 4 28 40 49 138 78 36
11 57 20 47 20 -21 1 -166 -47 -183 -60 -7 -6 -15 0 -23 17 -9 21 -17 25 -44
22 -17 -2 -34 -6 -37 -9 -3 -3 -32 -16 -65 -29 -33 -13 -66 -28 -73 -33 -29
-23 -19 3 23 59 49 64 52 74 30 74 -13 0 -15 21 -15 125 l0 125 30 -6 c30 -6
30 -6 30 40 0 41 2 46 18 37 14 -7 17 -23 17 -83z m4228 65 c19 -9 32 -11 40
-5 7 6 24 8 40 5 22 -4 25 -8 16 -19 -7 -8 -7 -14 -1 -14 5 0 15 7 22 15 7 9
22 13 36 10 13 -3 35 -7 49 -10 21 -5 25 -11 25 -41 0 -30 -3 -35 -17 -29 -70
27 -237 85 -249 85 -7 0 -11 -6 -8 -13 3 -8 -2 -19 -10 -26 -12 -10 -13 -18
-5 -33 11 -19 12 -19 42 10 26 24 36 28 54 21 22 -8 22 -9 -18 -46 l-40 -38
22 -49 c23 -52 39 -174 22 -163 -6 4 -13 32 -16 63 -8 78 -59 177 -123 242
l-53 52 72 -1 c40 -1 84 -8 100 -16z m-243 0 c-1 -28 -17 -33 -53 -18 -20 8
-37 17 -37 20 0 3 20 5 45 5 25 0 45 -3 45 -7z m-3350 -188 c70 -69 70 -70 70
-125 0 -52 3 -59 40 -95 21 -21 37 -43 33 -48 -7 -12 -253 233 -253 253 0 8
38 -23 85 -70 61 -60 85 -79 85 -66 0 11 -31 52 -70 92 l-70 72 2 78 c1 59 3
66 5 28 4 -47 8 -55 73 -119z m3297 144 c100 -38 182 -139 199 -248 6 -35 4
-43 -7 -39 -8 2 -16 22 -19 44 -3 23 -10 39 -17 38 -34 -3 -35 -5 -29 -44 l6
-40 -85 0 c-64 0 -85 3 -85 13 0 20 -41 54 -72 62 -41 10 -39 -27 2 -42 46
-17 38 -40 -15 -45 -25 -2 -45 0 -45 4 0 11 -38 10 -42 -1 -3 -10 -128 -34
-136 -27 -2 2 -4 18 -4 35 -1 17 -5 31 -11 31 -5 0 -7 14 -5 31 4 23 0 33 -15
41 -15 7 -22 7 -28 -3 -17 -28 -20 1 -3 33 39 76 104 135 181 163 59 21 163
19 230 -6z m-400 -38 c-20 -22 -46 -58 -59 -80 -13 -23 -27 -41 -31 -41 -12 0
33 76 71 121 19 21 38 39 44 39 6 0 -6 -18 -25 -39z m-2761 -113 c71 -70 115
-121 113 -130 -3 -11 -40 19 -121 96 -100 95 -118 117 -117 142 0 16 3 24 5
18 3 -6 57 -63 120 -126z m-935 110 c37 -11 39 -13 39 -53 0 -23 -3 -44 -6
-47 -3 -3 -23 1 -45 10 -37 14 -39 17 -39 59 0 48 -2 47 51 31z m408 -63 c13
-13 -100 -2 -160 15 -53 16 -69 25 -69 39 0 17 9 16 112 -15 61 -19 114 -37
117 -39z m509 -90 l62 -59 -2 -76 c-2 -68 -2 -69 -5 -19 l-4 57 -109 107 c-73
70 -110 114 -110 128 0 23 -1 23 168 -138z m168 44 l102 -101 2 -180 c0 -122
-3 -178 -10 -173 -6 4 -10 60 -10 145 l0 138 -130 124 c-71 69 -130 130 -130
136 0 7 15 12 36 12 33 0 47 -10 140 -101z m2522 79 c-8 -13 -20 -33 -27 -46
-10 -20 -15 -21 -28 -10 -13 11 -10 16 23 45 46 39 51 40 32 11z m-2468 -63
c41 -41 72 -77 69 -79 -3 -3 -41 30 -84 74 -44 44 -75 80 -70 80 6 0 44 -34
85 -75z m57 -12 c-2 -16 -4 -3 -4 27 0 30 2 43 4 28 2 -16 2 -40 0 -55z m-949
37 c46 -11 50 -18 16 -26 -16 -4 -41 -15 -56 -25 -35 -25 -58 -24 -58 2 0 29
32 70 50 63 8 -4 30 -10 48 -14z m312 -24 l105 -34 3 -39 3 -38 -33 31 c-51
47 -89 70 -138 85 -43 12 -75 29 -54 29 5 0 56 -16 114 -34z m354 -295 c-6 -7
-224 211 -224 224 0 5 52 -42 115 -105 63 -63 112 -116 109 -119z m-55 -29
c-19 -13 -25 -11 -70 34 -41 40 -99 136 -99 163 0 3 43 -37 95 -89 91 -90 93
-94 74 -108z m777 180 c23 -15 33 -51 32 -121 0 -39 2 -74 5 -77 3 -3 37 42
76 100 l71 106 53 0 52 0 88 -134 c108 -163 110 -180 24 -184 l-57 -3 -51 80
c-29 45 -54 81 -58 81 -3 0 -30 -36 -59 -80 l-52 -80 -53 0 c-29 0 -58 5 -64
11 -8 8 -13 8 -17 0 -5 -7 -63 -11 -167 -11 l-159 0 0 160 0 160 163 0 c89 0
167 -4 173 -8z m1364 -27 c14 -7 40 -16 58 -20 l33 -7 -3 -56 -3 -56 -50 -13
c-27 -7 -54 -13 -59 -13 -5 0 -6 27 -3 60 5 60 -1 72 -22 46 -9 -11 -9 -15 0
-18 8 -3 9 -17 4 -46 -12 -72 -24 -46 -24 54 0 105 -1 104 69 69z m653 -3 l28
-29 -100 -16 c-135 -23 -132 -23 -120 12 10 29 17 31 160 60 3 0 18 -12 32
-27z m-2958 -58 c-3 -20 -16 -56 -28 -80 -18 -37 -26 -44 -50 -44 -28 0 -29 0
-21 43 5 23 8 57 9 75 0 35 4 37 53 23 25 -8 32 -7 32 5 0 8 3 14 6 14 3 0 3
-16 -1 -36z m-523 1 c-24 -14 -49 -22 -55 -18 -7 3 -9 3 -5 -2 4 -4 0 -14 -10
-21 -9 -7 -12 -14 -6 -14 6 0 22 8 35 19 80 62 92 42 17 -30 -74 -71 -133
-173 -125 -216 2 -12 1 -24 -4 -25 -4 -2 -16 -25 -27 -53 l-19 -50 -36 71 -36
71 45 99 c24 54 44 100 44 101 0 4 82 45 140 69 73 31 96 30 42 -1z m71 -7 c4
-13 1 -26 -6 -30 -7 -3 -21 -13 -31 -21 -19 -14 -17 -15 17 -13 l38 1 30 -87
31 -88 -30 -72 -29 -73 -93 -32 c-51 -18 -94 -32 -96 -30 -1 1 26 67 60 147
52 119 61 150 56 180 -8 50 -7 60 15 103 22 43 30 46 38 15z m3959 -30 c-22
-48 -65 -93 -81 -84 -6 4 -28 -2 -50 -14 -22 -11 -58 -20 -81 -20 -39 0 -40
-1 -40 -36 l0 -37 58 6 c105 9 190 71 240 175 15 31 32 54 37 52 25 -9 -26
-120 -80 -175 -41 -40 -91 -68 -154 -85 -36 -9 -46 -9 -60 4 -10 9 -35 16 -57
16 -37 0 -40 3 -66 53 -16 29 -28 55 -28 59 0 4 -12 20 -26 35 -30 33 -48 63
-37 63 4 0 18 -16 31 -36 12 -19 27 -32 33 -29 5 4 1 17 -11 33 -19 24 -20 26
-4 35 13 7 21 5 30 -8 19 -25 65 -55 87 -55 29 0 22 47 -8 54 -14 4 -25 11
-25 16 0 12 2 12 36 0 17 -7 30 -7 33 -1 3 5 24 12 46 16 l40 8 -19 -22 c-11
-11 -25 -21 -33 -21 -10 0 -12 -7 -7 -22 9 -30 8 -30 37 -19 14 5 38 26 54 45
31 39 72 52 53 17 -12 -24 -13 -31 -1 -31 5 0 13 9 16 21 6 18 44 42 53 34 2
-2 -5 -23 -16 -47z m-3683 10 c-24 -17 -59 -47 -78 -67 l-33 -36 24 35 c26 37
102 100 120 100 6 0 -9 -14 -33 -32z m3901 24 c0 -24 -44 -131 -71 -174 -56
-87 -158 -162 -254 -186 -71 -18 -135 -24 -135 -13 0 6 14 11 31 11 29 0 119
19 119 26 0 1 -4 14 -9 27 -9 23 -13 24 -48 16 -48 -11 -53 -11 -53 0 0 5 19
11 43 15 123 19 222 110 273 251 7 19 7 19 11 1 3 -10 -8 -45 -24 -77 -29 -58
-29 -59 -10 -76 18 -17 20 -17 34 2 26 35 52 91 64 139 6 25 15 46 20 46 5 0
9 -4 9 -8z m-3823 -16 c-3 -8 -9 -31 -13 -50 -3 -20 -10 -36 -15 -36 -5 0 -9
-8 -9 -18 0 -11 -10 -23 -23 -29 -13 -6 -49 -34 -80 -63 -41 -38 -57 -59 -57
-79 -1 -14 -8 -37 -16 -51 -15 -25 -15 -25 -8 10 3 19 7 60 8 90 2 30 8 66 15
80 12 24 11 24 -4 5 -25 -30 -37 -55 -27 -55 10 0 3 -61 -10 -76 -5 -7 -6 -29
-2 -51 4 -30 1 -44 -14 -63 -17 -21 -22 -22 -36 -11 -12 10 -13 18 -5 32 5 11
7 30 4 42 -4 15 -3 18 3 9 7 -11 12 -6 21 19 14 39 14 49 1 29 -7 -11 -8 -5
-3 20 8 41 66 127 87 127 11 0 12 -7 4 -31 -6 -17 -12 -44 -15 -61 -5 -28 -4
-28 16 10 12 21 21 55 21 75 0 28 8 43 33 67 59 57 137 94 124 59z m3201 -100
c29 -43 51 -80 49 -82 -2 -3 -51 6 -108 20 -57 13 -140 30 -183 37 -78 12
-129 40 -109 59 10 10 238 49 273 47 18 -2 37 -21 78 -81z m-2828 -21 l0 -95
-60 0 -60 0 0 63 0 62 58 31 c31 17 58 32 60 33 1 0 2 -42 2 -94z m100 -20
c43 -43 68 -75 59 -75 -14 0 -149 130 -149 144 0 16 22 0 90 -69z m-890 14 c0
-34 -2 -35 -36 -12 l-26 17 23 17 c29 22 39 16 39 -22z m1707 22 c9 -14 9 -29
3 -48 -5 -15 -14 -47 -20 -70 -10 -41 -12 -43 -50 -43 -29 0 -39 4 -42 18 -3
15 80 161 92 162 3 0 11 -9 17 -19z m-802 -110 c-7 -6 -105 90 -105 103 0 6
25 -14 55 -44 30 -29 52 -56 50 -59z m-946 70 c11 -7 9 -11 -8 -21 -30 -16
-58 -6 -41 15 14 17 29 19 49 6z m1801 -46 c12 -19 28 -35 36 -35 12 0 12 -4
2 -20 -10 -15 -24 -20 -55 -20 -24 0 -43 4 -43 8 0 12 31 102 35 102 2 0 13
-16 25 -35z m1706 0 l27 -25 -26 0 c-21 0 -25 4 -20 18 6 16 5 16 -14 0 -11
-10 -28 -18 -38 -18 -17 0 -16 3 5 25 13 14 27 25 31 25 4 0 20 -11 35 -25z
m-2631 -5 c18 -19 17 -20 -6 -20 -18 0 -25 5 -25 20 0 11 3 20 7 20 3 0 14 -9
24 -20z m-915 -10 c8 0 -10 -74 -22 -85 -3 -4 -16 0 -27 7 -17 10 -20 19 -16
38 9 34 25 52 42 45 8 -3 18 -5 23 -5z m3680 0 c13 -8 13 -10 -2 -10 -9 0 -20
5 -23 10 -8 13 5 13 25 0z m-3654 -57 c-8 -15 -15 -25 -16 -21 0 12 23 58 27
54 3 -2 -2 -17 -11 -33z m2140 -20 c-3 -4 -22 -12 -41 -18 -27 -10 -35 -10
-39 1 -3 9 8 14 37 17 23 2 44 4 46 5 2 1 1 -1 -3 -5z m-323 -20 c-20 -54 -28
-58 -106 -55 -72 3 -74 4 -69 28 4 23 8 24 86 26 l81 2 -80 6 -80 6 87 2 c79
2 87 0 81 -15z m979 -63 l17 -40 63 0 c68 0 88 -10 88 -46 0 -17 -5 -20 -25
-16 -13 2 -32 2 -40 -2 -14 -5 -11 -13 15 -51 17 -25 34 -45 38 -45 4 0 8 -12
8 -26 2 -25 2 -25 -13 -5 -11 17 -26 21 -76 23 l-62 1 58 6 57 6 -27 40 c-32
48 -42 56 -68 53 -11 -1 -39 16 -63 40 -42 39 -48 62 -16 62 8 0 14 9 14 20 0
32 14 23 32 -20z m-2838 5 c-4 -11 -13 -35 -20 -54 -13 -32 -15 -33 -36 -19
-30 20 -31 28 -10 63 13 21 26 30 45 30 22 0 26 -3 21 -20z m1816 -15 c0 -6
-30 -10 -70 -10 -40 0 -70 4 -70 10 0 6 30 10 70 10 40 0 70 -4 70 -10z
m-1630 -41 c0 -20 -15 -26 -25 -9 -3 6 -11 10 -17 10 -6 0 -3 -8 6 -19 16 -17
16 -19 -4 -24 -15 -4 -20 0 -20 16 0 17 -2 19 -9 7 -6 -8 -7 -18 -5 -22 9 -15
-6 -8 -25 11 -23 23 -18 31 21 31 15 0 28 4 28 9 0 10 30 20 43 14 4 -2 7 -13
7 -24z m30 1 c9 -16 8 -20 -5 -20 -8 0 -15 9 -15 20 0 11 2 20 5 20 2 0 9 -9
15 -20z m3076 -42 c-3 -29 -6 -77 -6 -107 l0 -53 -34 26 c-19 14 -37 26 -40
26 -16 0 -3 -42 24 -75 17 -21 30 -39 30 -41 0 -2 -16 -4 -35 -4 l-35 0 0 140
0 140 51 0 51 0 -6 -52z m-3244 4 c6 -20 -17 -47 -27 -32 -3 6 -1 10 6 10 8 0
9 3 0 13 -6 8 -8 17 -4 20 11 12 20 8 25 -11z m-44 -28 c-4 -3 -12 5 -18 18
-12 22 -12 22 6 6 10 -10 15 -20 12 -24z m80 18 c6 -18 -15 -14 -22 4 -4 10
-1 14 6 12 6 -2 14 -10 16 -16z m-141 -13 c8 -8 3 -24 -18 -57 -36 -56 -53
-115 -44 -151 7 -27 42 -71 57 -71 4 0 8 10 8 23 0 12 8 31 16 42 15 19 16 14
10 -60 -4 -44 -9 -81 -11 -83 -2 -2 -10 1 -17 7 -7 6 -28 23 -47 38 -78 63
-81 175 -6 284 30 42 35 45 52 28z m3403 0 c0 -6 25 -35 55 -65 31 -30 51 -54
46 -54 -5 0 -13 5 -16 10 -3 6 -34 11 -68 12 -57 1 -58 2 -14 5 26 2 47 8 47
12 0 5 -20 27 -45 50 -35 32 -40 41 -25 41 11 0 20 -5 20 -11z m-3359 -16 c13
-16 12 -17 -3 -4 -10 7 -18 15 -18 17 0 8 8 3 21 -13z m430 -117 c-19 -20 -30
-86 -15 -86 7 0 215 180 226 195 9 12 10 -29 1 -117 l-6 -68 -71 0 -71 0 54
48 c30 26 64 50 75 54 21 6 21 6 0 7 -13 1 -48 -23 -90 -61 -177 -161 -213
-189 -239 -186 -24 3 -24 4 19 38 44 34 45 37 46 92 0 51 3 59 30 78 25 18 30
28 30 64 0 23 6 48 13 55 10 10 13 2 15 -40 3 -41 -1 -56 -17 -73z m3254 24
c3 -5 1 -10 -4 -10 -6 0 -11 5 -11 10 0 6 2 10 4 10 3 0 8 -4 11 -10z m-341
-104 c31 -11 13 -15 -24 -6 -19 4 -31 8 -27 9 5 1 -5 19 -22 40 -45 57 -37 63
12 10 23 -26 51 -50 61 -53z m-1331 -5 c-50 -3 -94 -8 -96 -11 -3 -3 -9 -33
-13 -68 l-7 -63 119 3 119 3 -2 33 c-1 27 1 31 13 21 8 -6 14 -22 14 -36 l0
-24 118 3 c115 3 117 3 115 26 -3 22 -2 22 137 22 l140 0 10 -25 c9 -25 11
-25 123 -25 63 0 116 2 119 5 3 3 -9 34 -28 67 -18 34 -30 66 -28 70 3 4 40 7
82 6 73 -2 74 -2 17 -5 -33 -2 -63 -7 -67 -11 -4 -4 8 -34 25 -67 l32 -60 118
-3 c114 -3 130 1 105 26 -6 6 -9 15 -5 18 4 4 16 -5 28 -19 18 -24 27 -27 85
-27 l64 0 0 -40 0 -41 35 7 c33 6 35 5 35 -20 l0 -26 -950 0 c-545 0 -950 4
-950 9 0 5 6 24 14 42 l14 34 4 -35 3 -35 126 -3 c140 -3 146 -1 156 62 l6 35
-109 3 -109 3 -2 28 c-1 15 3 27 8 27 6 0 9 -10 7 -22 -3 -23 -1 -23 109 -26
129 -3 126 -5 138 91 l7 57 107 -2 106 -2 -92 -5z m-1373 -29 c0 -10 -15 -32
-32 -49 -30 -28 -43 -33 -128 -43 -147 -18 -151 -15 -72 52 l67 57 83 1 c72 0
82 -2 82 -18z m-3 -57 c-4 -8 -14 -15 -23 -15 -16 0 -16 2 1 20 20 22 31 20
22 -5z m489 -17 c-9 -12 -16 -26 -16 -30 0 -5 51 -9 113 -9 61 -1 104 -3 94
-6 -14 -4 -57 -69 -57 -88 0 -3 15 -5 33 -5 17 0 39 -5 47 -10 10 -6 -126 -10
-392 -10 -266 0 -408 3 -408 10 0 6 22 10 49 10 46 0 52 3 88 45 33 38 48 48
96 59 48 11 57 11 57 0 0 -10 -13 -14 -42 -14 -35 0 -49 -6 -80 -37 -21 -20
-38 -41 -38 -45 0 -10 251 -10 265 0 12 8 55 67 55 76 0 3 -24 7 -52 9 -34 2
-20 4 39 5 92 2 94 3 131 47 20 24 35 18 18 -7z m-36 4 c0 -24 -30 -32 -113
-32 -65 0 -88 3 -85 12 3 7 15 15 29 19 34 10 169 11 169 1z m443 -49 c-13 -2
-33 -2 -45 0 -13 2 -3 4 22 4 25 0 35 -2 23 -4z m-1221 -53 c90 0 91 0 73 -20
-18 -20 -17 -20 43 -20 35 0 62 -4 62 -10 0 -6 -62 -10 -165 -10 -91 0 -165
-4 -165 -9 0 -27 33 -32 179 -29 83 2 151 0 151 -5 0 -4 -73 -6 -162 -5 l-162
3 -15 27 c-15 26 -14 29 14 58 16 17 35 28 43 25 7 -3 54 -5 104 -5z m2459
-114 c-19 -20 -31 -23 -84 -23 -34 0 -71 -3 -83 -6 l-21 -7 23 -88 c46 -183
40 -170 82 -174 l37 -4 -35 -16 c-19 -9 -51 -19 -70 -23 l-35 -7 26 28 c15 16
24 36 22 44 -3 8 -7 22 -9 29 -3 10 -62 -43 -172 -152 l-167 -167 -53 53 c-49
49 -52 56 -52 102 l0 49 53 -52 52 -52 157 158 157 157 -11 43 -11 44 -63 -63
c-50 -50 -64 -70 -64 -94 0 -24 -16 -45 -82 -112 l-82 -83 -53 52 c-29 29 -53
58 -53 64 0 6 -7 17 -15 24 -8 7 -15 17 -15 23 0 6 30 -22 68 -62 l67 -73 78
80 c101 104 100 130 -1 29 l-78 -77 -42 43 c-23 23 -42 47 -42 53 0 5 18 28
40 49 l40 39 0 93 0 93 49 0 49 0 4 -61 c3 -62 3 -62 -39 -99 -24 -21 -43 -43
-43 -49 0 -25 28 -6 88 61 54 60 62 75 62 109 0 21 5 39 10 39 6 0 10 -26 10
-58 l0 -57 -84 -84 c-46 -46 -89 -81 -94 -77 -15 9 -33 -27 -23 -43 12 -19 45
-9 49 14 2 11 67 84 145 163 109 109 148 142 167 142 24 -1 24 -1 6 -15 -15
-11 -16 -15 -5 -15 8 0 24 7 35 15 22 16 48 20 39 5 -10 -15 38 -11 59 5 29
22 32 18 7 -9z m284 14 c-3 -5 -18 -10 -33 -10 -21 0 -46 -19 -104 -79 l-77
-78 -53 14 c-31 8 -77 12 -110 10 -51 -5 -58 -3 -58 13 0 33 88 40 182 14 58
-17 59 -17 83 6 13 12 22 27 19 34 -2 6 10 26 28 43 25 24 44 33 78 36 25 2
46 4 48 5 2 1 0 -2 -3 -8z m-116 -146 c-141 -141 -158 -155 -177 -145 -11 6
-39 11 -61 11 -38 0 -41 2 -50 37 -6 20 -8 39 -5 42 12 12 130 3 165 -12 l36
-15 119 119 c65 65 121 119 124 119 3 0 -65 -70 -151 -156z m226 146 c-3 -5
-12 -10 -20 -10 -7 0 -42 -29 -76 -65 -35 -36 -68 -64 -75 -61 -6 2 -22 -6
-35 -20 -22 -23 -22 -25 -6 -41 16 -16 23 -11 122 87 58 58 105 100 105 95 0
-5 -73 -83 -162 -172 l-162 -162 -29 21 -29 21 139 139 c131 132 170 162 231
177 2 1 0 -3 -3 -9z m-1755 -24 c0 -67 -46 -77 -100 -21 l-34 35 -370 3 -371
2 438 3 437 2 0 -24z m557 -138 l163 -163 0 -48 c0 -30 -4 -46 -10 -42 -5 3
-10 26 -10 50 0 37 -6 50 -45 92 l-44 48 -1 -45 0 -44 -55 54 c-46 45 -55 60
-55 89 0 30 -10 45 -67 103 -37 38 -61 68 -53 68 8 0 88 -73 177 -162z m-77
146 c0 -14 -3 -14 -15 -4 -8 7 -15 14 -15 16 0 2 7 4 15 4 8 0 15 -7 15 -16z
m130 -36 l0 -52 -30 29 c-16 16 -30 39 -30 52 0 19 5 23 30 23 29 0 30 -1 30
-52z m110 -47 c0 -92 2 -102 25 -128 l24 -28 1 55 c0 39 6 62 20 80 13 17 20
41 20 73 0 43 2 47 25 47 25 0 25 -1 25 -86 l0 -87 -44 -47 -44 -47 -36 36
-36 37 0 97 c0 58 4 97 10 97 6 0 10 -40 10 -99z m307 77 c-3 -8 -6 -5 -6 6
-1 11 2 17 5 13 3 -3 4 -12 1 -19z m123 8 c0 -8 -4 -18 -10 -21 -5 -3 -10 3
-10 14 0 12 5 21 10 21 6 0 10 -6 10 -14z m300 -11 c-21 -22 -70 -35 -70 -18
0 18 37 43 63 43 l30 0 -23 -25z m508 18 c-32 -2 -86 -2 -120 0 -35 2 -9 3 57
3 66 0 94 -1 63 -3z m-947 -76 c-20 -20 -21 -20 -21 -3 0 10 8 25 18 32 26 19
28 -4 3 -29z m920 29 c-12 -14 -151 -28 -151 -15 0 19 32 29 93 29 59 0 68 -2
58 -14z m-1346 -53 c13 -16 25 -33 25 -38 0 -16 79 -90 86 -82 9 9 34 -25 27
-36 -7 -11 -173 153 -173 170 0 19 8 16 35 -14z m305 -198 c0 -8 -4 -15 -10
-15 -5 0 -10 7 -10 15 0 8 5 15 10 15 6 0 10 -7 10 -15z m490 -25 c13 -8 12
-11 -5 -25 -63 -49 -163 -80 -221 -69 -33 6 -34 7 -18 25 12 13 31 19 59 19
26 0 61 10 96 29 62 33 69 34 89 21z m48 -41 c18 -29 -2 -50 -87 -92 -59 -29
-74 -32 -156 -32 -100 0 -136 8 -117 27 8 8 48 12 105 13 74 0 96 3 112 18 22
20 117 85 125 86 3 1 11 -8 18 -20z"/>
<path d="M2405 4510 c-3 -6 1 -7 9 -4 18 7 21 14 7 14 -6 0 -13 -4 -16 -10z"/>
<path d="M1924 4494 c-18 -15 -18 -15 6 -10 14 3 33 6 43 6 10 0 15 5 12 10
-9 15 -39 12 -61 -6z"/>
<path d="M2305 4481 c-100 -7 -98 -9 33 -47 45 -13 137 -52 205 -85 l122 -62
86 12 c48 7 104 9 125 6 29 -5 35 -4 24 4 -20 14 -88 14 -167 -1 l-64 -12
-142 72 c-78 40 -169 78 -202 86 -50 12 -54 14 -25 15 85 2 175 -19 232 -54
78 -48 128 -48 173 0 l33 35 37 -16 c20 -8 42 -13 48 -11 5 1 -14 14 -44 26
-65 29 -160 37 -253 23 -56 -9 -74 -8 -97 3 -15 8 -29 14 -31 13 -2 -1 -43 -4
-93 -7z m329 -37 c22 -22 21 -54 -3 -54 -12 0 -22 11 -29 33 -8 25 -10 27 -11
10 -1 -28 -15 -37 -30 -19 -31 37 38 65 73 30z"/>
<path d="M2815 4393 c-16 -9 -48 -22 -70 -30 l-40 -13 39 6 c43 6 106 33 106
46 0 10 1 10 -35 -9z"/>
<path d="M2630 4360 c8 -5 22 -9 30 -9 10 0 8 3 -5 9 -27 12 -43 12 -25 0z"/>
<path d="M2985 4224 c39 -45 72 -80 74 -78 6 6 -79 108 -112 134 -18 14 -1
-10 38 -56z"/>
<path d="M1876 4241 c-16 -17 -27 -33 -24 -36 2 -3 15 6 28 20 43 46 139 32
393 -57 l118 -41 112 7 c154 9 194 21 185 54 -3 10 -30 3 -49 -14 -14 -13 -18
-10 -34 26 -10 21 -26 47 -36 56 -18 17 -20 15 -46 -44 l-28 -62 -62 0 c-49 0
-99 12 -230 56 -101 33 -194 57 -233 61 -63 5 -66 4 -94 -26z m715 -42 c15
-37 3 -49 -48 -49 -31 0 -32 1 -23 25 6 14 15 37 20 51 12 31 30 21 51 -27z"/>
<path d="M2154 3951 c3 -5 22 -12 41 -15 20 -4 87 -22 148 -41 62 -19 156 -44
210 -55 l97 -22 77 26 c79 27 119 46 96 46 -7 0 -47 -12 -89 -26 -92 -31 -90
-31 -364 42 -220 58 -224 59 -216 45z"/>
<path d="M2810 3851 c-8 -5 -32 -11 -52 -15 -21 -4 -38 -11 -38 -16 0 -5 17
-6 38 -3 53 8 119 44 80 43 -7 0 -20 -4 -28 -9z"/>
<path d="M3470 3927 c0 -8 7 -21 16 -28 14 -11 15 -10 12 11 -3 26 -28 41 -28
17z"/>
<path d="M4453 3993 c-19 -10 -33 -24 -33 -35 0 -22 3 -22 40 -3 18 9 30 24
30 35 0 11 -1 20 -2 19 -2 0 -18 -8 -35 -16z"/>
<path d="M4298 3914 c-16 -8 -28 -23 -28 -35 0 -19 2 -19 30 -4 18 9 30 23 30
35 0 23 2 23 -32 4z"/>
<path d="M4198 3864 c-17 -9 -28 -23 -28 -35 0 -21 0 -21 32 -2 18 11 34 27
36 36 4 21 -4 21 -40 1z"/>
<path d="M3890 3717 c0 -9 205 -205 209 -201 6 6 -190 204 -201 204 -5 0 -8
-2 -8 -3z"/>
<path d="M3843 3688 c-21 -10 -33 -48 -15 -48 16 0 45 27 48 44 3 18 -2 19
-33 4z"/>
<path d="M3763 3647 c-21 -9 -33 -47 -15 -47 18 0 44 27 41 42 -3 12 -9 13
-26 5z"/>
<path d="M4230 3375 c24 -24 46 -42 49 -40 6 7 -70 85 -83 85 -6 0 10 -20 34
-45z"/>
<path d="M4416 3188 c54 -57 101 -99 103 -94 4 10 -179 196 -193 196 -6 0 35
-46 90 -102z"/>
<path d="M622 3863 c2 -55 6 -68 21 -71 15 -3 17 5 17 61 0 61 -7 77 -36 77
-3 0 -4 -30 -2 -67z"/>
<path d="M680 3891 c0 -6 5 -13 10 -16 6 -3 10 1 10 9 0 9 -4 16 -10 16 -5 0
-10 -4 -10 -9z"/>
<path d="M680 3835 c0 -8 5 -15 10 -15 6 0 10 7 10 15 0 8 -4 15 -10 15 -5 0
-10 -7 -10 -15z"/>
<path d="M620 3565 c0 -44 4 -56 20 -65 19 -10 20 -8 20 49 0 55 -8 71 -36 71
-2 0 -4 -25 -4 -55z"/>
<path d="M1332 3567 c-17 -18 -22 -36 -22 -73 l0 -51 -120 -118 c-75 -73 -112
-115 -98 -111 13 3 41 9 63 13 22 3 84 32 137 65 54 32 113 66 133 75 l35 17
0 72 c0 70 -1 74 -31 95 l-30 21 -30 -28 c-16 -15 -29 -23 -29 -17 0 5 9 18
20 28 11 10 17 22 14 26 -8 14 -19 11 -42 -14z"/>
<path d="M622 3413 c2 -46 7 -58 21 -61 16 -3 18 3 15 55 -2 46 -7 58 -21 61
-16 3 -18 -3 -15 -55z"/>
<path d="M620 3277 c0 -49 12 -77 32 -77 4 0 8 27 8 59 0 55 -8 71 -36 71 -2
0 -4 -24 -4 -53z"/>
<path d="M550 2950 c0 -52 4 -79 10 -75 6 3 10 20 10 36 0 20 9 38 28 54 15
13 24 27 20 31 -5 4 -17 -1 -28 -11 -20 -18 -20 -17 -20 8 0 14 -4 29 -10 32
-6 4 -10 -23 -10 -75z"/>
<path d="M512 2910 c-19 -31 -14 -45 8 -25 20 18 27 45 12 45 -4 0 -13 -9 -20
-20z"/>
<path d="M3300 3933 c0 -5 7 -18 15 -29 12 -16 14 -16 15 -3 0 9 -7 22 -15 29
-8 7 -15 8 -15 3z"/>
<path d="M1830 3833 c-53 -59 -74 -118 -74 -198 0 -79 28 -157 71 -197 l26
-23 -27 42 c-76 116 -72 261 9 368 42 54 39 59 -5 8z"/>
<path d="M820 2848 c0 -4 38 -54 85 -110 75 -90 177 -179 191 -166 2 3 -21 22
-51 42 -30 20 -77 64 -103 98 -54 72 -121 146 -122 136z"/>
<path d="M1200 2562 c17 -12 253 -82 278 -83 10 0 -18 -9 -60 -18 -43 -10 -81
-21 -85 -24 -9 -10 1 -9 94 7 65 12 149 14 400 10 200 -3 312 -2 303 4 -8 5
-121 12 -250 15 -201 4 -255 9 -370 32 -74 14 -166 33 -205 40 -38 8 -81 17
-95 20 -19 5 -21 4 -10 -3z"/>
<path d="M2750 2900 c14 -11 74 -45 134 -76 101 -52 205 -83 281 -83 31 0 -2
15 -50 23 -55 10 -237 81 -311 122 -68 38 -92 44 -54 14z"/>
<path d="M2311 2587 c3 -4 52 -27 109 -52 57 -26 122 -59 144 -74 55 -37 66
-43 66 -37 0 17 -131 99 -198 124 -89 34 -129 47 -121 39z"/>
<path d="M3165 2354 c-27 -7 -85 -15 -127 -16 -44 -1 -74 -6 -71 -12 4 -5 71
-6 168 -2 150 6 213 2 270 -20 37 -15 3 17 -45 41 -56 28 -116 31 -195 9z"/>
<path d="M2105 2236 c-11 -7 -53 -24 -92 -37 -40 -12 -73 -27 -73 -31 0 -12
11 -10 81 12 35 11 78 31 94 45 32 26 24 35 -10 11z"/>
<path d="M628 2013 c7 -3 16 -2 19 1 4 3 -2 6 -13 5 -11 0 -14 -3 -6 -6z"/>
<path d="M700 2009 c0 -5 9 -9 20 -9 11 0 20 2 20 4 0 2 -9 6 -20 9 -11 3 -20
1 -20 -4z"/>
<path d="M525 1990 c-3 -6 1 -7 9 -4 18 7 21 14 7 14 -6 0 -13 -4 -16 -10z"/>
<path d="M630 1990 l-35 -7 35 -2 c19 0 42 4 50 9 13 9 13 10 0 9 -8 -1 -31
-5 -50 -9z"/>
<path d="M540 1970 c-14 -4 -36 -11 -50 -14 -14 -3 -34 -12 -45 -21 l-20 -17
20 8 c11 4 49 17 85 30 36 12 58 22 50 22 -8 0 -26 -3 -40 -8z"/>
<path d="M705 1970 c-11 -5 -38 -9 -60 -9 -22 -1 -65 -10 -95 -22 -59 -22
-125 -67 -115 -77 3 -4 9 -2 13 4 26 38 126 79 217 89 66 7 64 7 120 0 36 -4
37 -3 10 5 -61 18 -70 19 -90 10z"/>
<path d="M625 1900 c-27 -10 -67 -21 -87 -24 -21 -4 -40 -11 -43 -15 -5 -10
25 -3 137 31 38 11 80 18 95 16 16 -3 39 -2 53 2 18 6 6 8 -40 8 -40 1 -84 -6
-115 -18z"/>
<path d="M4147 2170 c-44 -11 -97 -37 -97 -48 0 -4 4 -13 9 -20 7 -12 14 -11
41 3 17 9 39 13 48 9 10 -3 41 -7 69 -8 50 -1 53 0 59 27 3 16 3 31 0 34 -10
10 -91 12 -129 3z"/>
<path d="M4190 2070 c0 -5 16 -10 35 -10 20 0 49 -7 65 -15 17 -9 31 -11 35
-5 3 5 -8 16 -24 25 -33 17 -111 21 -111 5z"/>
<path d="M4105 2052 c-16 -11 -36 -26 -43 -34 -19 -23 2 -31 22 -9 10 11 31
25 47 31 29 13 39 30 17 30 -7 0 -26 -8 -43 -18z"/>
<path d="M4220 1997 c0 -17 9 -26 35 -36 19 -7 42 -25 52 -42 22 -37 69 -43
57 -6 -12 38 -42 74 -78 91 -48 22 -66 21 -66 -7z"/>
<path d="M4350 2016 c0 -3 11 -22 25 -42 14 -20 25 -43 25 -50 0 -8 5 -14 10
-14 16 0 12 22 -13 64 -19 34 -47 59 -47 42z"/>
<path d="M4126 1989 c-28 -22 -56 -68 -56 -94 0 -9 9 -15 25 -15 16 0 25 6 25
16 0 8 14 29 30 46 21 21 29 36 25 49 -8 24 -16 24 -49 -2z"/>
<path d="M4010 1919 c-9 -35 -9 -54 -2 -61 7 -7 13 4 17 36 4 25 11 49 16 52
5 3 7 10 4 15 -13 20 -24 7 -35 -42z"/>
<path d="M1565 1882 c-3 -3 -5 -65 -5 -139 l0 -133 35 0 35 0 0 134 0 134 -30
4 c-17 3 -32 2 -35 0z"/>
<path d="M1643 1873 c-3 -6 -3 -20 -1 -30 3 -15 15 -18 83 -19 71 -1 80 -4 80
-20 0 -17 -10 -19 -82 -22 l-83 -3 0 -29 0 -30 85 0 c84 0 85 0 85 -25 0 -25
-1 -25 -85 -25 l-85 0 0 -30 0 -30 103 0 c127 0 140 7 138 76 -1 27 -2 74 -1
104 0 30 -4 62 -10 70 -12 20 -220 32 -227 13z"/>
<path d="M2078 1873 c-21 -25 -158 -230 -165 -248 -4 -12 4 -15 35 -15 40 0
40 1 98 95 33 52 61 94 64 95 3 0 32 -43 64 -95 58 -94 59 -95 99 -95 29 0 38
4 34 13 -9 24 -159 252 -171 259 -19 13 -42 9 -58 -9z"/>
<path d="M4340 1725 c-6 -8 -27 -20 -46 -27 -40 -14 -46 -33 -7 -23 36 9 85
44 78 56 -8 12 -10 12 -25 -6z"/>
<path d="M4110 1692 c0 -13 54 -32 91 -32 42 0 35 16 -8 23 -21 3 -48 9 -60
13 -13 4 -23 2 -23 -4z"/>
<path d="M585 1559 c-4 -6 -5 -12 -2 -15 2 -3 7 2 10 11 7 17 1 20 -8 4z"/>
<path d="M2172 928 c-6 -6 -12 -27 -12 -45 l0 -33 136 0 135 0 -3 43 -3 42
-120 3 c-85 2 -124 -1 -133 -10z"/>
<path d="M2457 933 c-4 -3 -7 -24 -7 -45 l0 -38 135 0 c133 0 135 0 135 23 0
12 -3 32 -6 45 -6 21 -10 22 -128 22 -68 0 -126 -3 -129 -7z"/>
<path d="M2736 932 c-2 -4 -1 -23 3 -42 l7 -35 138 -3 138 -3 -8 23 c-22 73
-11 68 -148 68 -69 0 -127 -3 -130 -8z"/>
<path d="M3018 934 c-3 -3 1 -23 10 -45 l15 -39 134 0 c76 0 133 4 133 9 0 6
-9 26 -21 45 l-21 36 -122 0 c-68 0 -125 -3 -128 -6z"/>
<path d="M3300 928 c0 -7 9 -28 20 -45 l20 -33 135 0 c148 0 143 -3 97 58
l-24 32 -124 0 c-93 0 -124 -3 -124 -12z"/>
<path d="M1308 908 c-46 -61 -51 -58 97 -58 l135 0 20 33 c34 56 32 57 -104
57 l-124 0 -24 -32z"/>
<path d="M2955 4680 c-49 -49 -87 -91 -84 -93 7 -6 202 -38 206 -33 6 5 -20
216 -27 216 -3 0 -46 -40 -95 -90z"/>
<path d="M1767 4650 c-26 -30 -10 -46 19 -19 13 12 21 26 18 30 -8 14 -18 11
-37 -11z"/>
<path d="M1691 4576 c-34 -36 -16 -54 20 -20 16 15 29 31 29 36 0 16 -27 7
-49 -16z"/>
<path d="M1611 4496 c-34 -36 -16 -54 20 -20 15 15 26 31 23 36 -8 13 -19 9
-43 -16z"/>
<path d="M3841 4249 l-33 -20 4 -112 c2 -62 7 -118 12 -125 5 -8 16 -6 42 11
l35 22 2 117 c2 90 -1 119 -11 123 -17 6 -12 8 -51 -16z m39 -90 c0 -76 -3
-94 -17 -105 -10 -7 -21 -14 -25 -14 -5 0 -8 43 -8 95 0 79 3 96 18 104 9 6
20 11 25 11 4 0 7 -41 7 -91z"/>
<path d="M4775 3080 c-3 -5 -12 -7 -20 -3 -13 4 -15 -11 -15 -91 0 -57 4 -96
10 -96 6 0 10 32 10 77 0 65 3 80 22 100 12 13 16 23 10 23 -6 0 -13 -4 -17
-10z"/>
<path d="M4662 3015 c2 -25 1 -45 -2 -45 -4 0 -21 16 -40 35 -19 19 -39 35
-44 35 -6 0 13 -24 41 -52 43 -45 51 -57 46 -80 -3 -17 -1 -28 6 -28 6 0 11
10 11 22 l0 21 25 -23 c14 -13 25 -19 25 -13 0 5 -11 20 -25 33 -21 20 -25 33
-25 82 0 35 -4 58 -11 58 -7 0 -10 -17 -7 -45z"/>
<path d="M2327 1884 c-3 -4 0 -19 9 -35 13 -27 19 -29 69 -29 l55 0 0 -105 0
-105 35 0 34 0 3 107 3 107 52 -3 c48 -2 53 -1 67 27 8 16 12 32 9 36 -8 8
-328 8 -336 0z"/>
<path d="M2687 1884 c-3 -4 1 -20 9 -36 14 -28 19 -29 67 -27 l52 3 3 -107 3
-107 37 0 37 0 0 107 0 107 52 -3 c48 -2 53 0 67 27 8 16 12 32 9 36 -8 8
-328 8 -336 0z"/>
<path d="M3060 1750 l0 -140 35 0 35 0 0 140 0 140 -35 0 -35 0 0 -140z"/>
<path d="M3375 1881 c-3 -2 -5 -64 -5 -138 l0 -133 35 0 36 0 -3 137 -3 136
-28 1 c-15 1 -30 0 -32 -3z"/>
<path d="M3552 1882 l-103 -3 3 -27 c3 -27 3 -27 95 -30 l92 -3 16 30 c8 16
12 31 7 33 -4 2 -53 2 -110 0z"/>
<path d="M2973 1803 l-53 -4 0 -95 c0 -51 3 -94 8 -93 4 0 29 8 56 17 l48 17
2 83 c0 45 -1 81 -4 80 -3 -1 -29 -3 -57 -5z m42 -48 c1 -26 -17 -62 -49 -100
l-25 -30 -1 78 0 78 38 -3 c29 -2 37 -7 37 -23z m2 -100 c-4 -8 -11 -15 -17
-15 -7 0 -7 6 0 21 13 23 26 19 17 -6z"/>
<path d="M2757 1794 c-4 -4 -7 -31 -7 -60 0 -29 -4 -56 -10 -59 -5 -3 -10 -31
-10 -61 0 -45 3 -54 18 -54 44 0 51 19 49 130 -2 86 -5 105 -17 108 -9 1 -19
0 -23 -4z m23 -114 c0 -60 -4 -100 -10 -100 -5 0 -13 0 -16 0 -10 0 -12 80 -2
86 4 3 8 30 8 60 0 30 5 54 10 54 6 0 10 -40 10 -100z"/>
<path d="M3450 1750 l0 -30 88 0 c85 0 89 1 100 25 7 14 12 28 12 30 0 3 -45
5 -100 5 l-100 0 0 -30z"/>
<path d="M3140 1640 l0 -30 104 0 105 0 -3 28 -3 27 -102 3 -101 3 0 -31z"/>
<path d="M3450 1640 l0 -30 99 0 c81 0 100 3 105 16 16 41 10 44 -99 44 l-105
0 0 -30z"/>
<path d="M1010 1290 l0 -240 45 0 45 0 0 240 0 240 -45 0 -45 0 0 -240z"/>
<path d="M1120 1481 l0 -50 123 -3 122 -3 0 -35 0 -35 -122 -3 -123 -3 0 -54
0 -55 126 0 125 0 -3 -42 -3 -43 -122 -3 -123 -3 0 -49 0 -50 140 0 c149 0
188 9 210 49 15 29 13 164 -3 186 -12 15 -12 23 1 47 23 47 12 133 -22 166
-26 27 -29 27 -176 30 l-150 3 0 -50z"/>
<path d="M1550 1290 l0 -240 45 0 45 0 0 240 0 240 -45 0 -45 0 0 -240z"/>
<path d="M1660 1480 l0 -51 146 3 147 3 13 45 c8 25 14 46 14 48 0 1 -72 2
-160 2 l-160 0 0 -50z"/>
<path d="M2138 1306 c-71 -123 -128 -231 -128 -240 0 -13 11 -16 53 -16 l52 0
94 170 c52 94 98 167 102 163 4 -5 46 -81 94 -170 l87 -163 53 0 c48 0 53 2
50 19 -2 11 -59 119 -127 240 l-123 221 -40 0 -40 0 -127 -224z"/>
<path d="M2695 1521 c-40 -17 -59 -50 -63 -111 -5 -70 9 -112 47 -137 22 -15
52 -19 189 -21 l163 -4 -3 -46 -3 -47 -164 -5 -165 -5 -28 -47 -27 -48 214 0
215 0 32 29 c30 27 33 34 36 105 5 87 -7 126 -47 153 -22 15 -52 19 -189 21
l-163 4 3 31 3 32 150 3 150 3 33 43 c17 24 32 46 32 49 0 10 -391 7 -415 -2z"/>
<path d="M3170 1526 c0 -2 9 -24 20 -50 l21 -46 79 0 80 0 0 -190 0 -190 55 0
55 0 0 190 0 190 88 0 89 0 11 39 c7 21 12 43 12 50 0 8 -72 11 -255 11 -140
0 -255 -2 -255 -4z"/>
<path d="M3754 1496 c-32 -32 -34 -38 -34 -103 0 -123 21 -136 235 -143 l160
-5 0 -45 0 -45 -166 -3 -166 -2 -27 -50 -27 -50 208 0 c188 0 211 2 240 20 52
31 71 149 35 220 -29 59 -65 70 -235 70 l-148 0 3 33 3 32 147 3 146 3 36 43
c20 25 36 47 36 50 0 3 -93 6 -206 6 l-206 0 -34 -34z"/>
<path d="M2523 1443 c-40 -13 -73 -29 -73 -34 0 -8 165 -307 174 -317 2 -1 15
16 30 38 l26 40 162 2 163 3 0 25 0 25 -160 5 c-98 3 -168 10 -181 17 -42 24
-57 61 -56 145 0 43 -3 78 -6 77 -4 0 -40 -12 -79 -26z m64 -23 c1 -16 -4 -20
-29 -20 -27 0 -30 -3 -24 -22 3 -13 6 -31 6 -40 0 -10 10 -18 28 -21 22 -3 20
-4 -10 -6 l-38 -1 0 45 c0 41 -2 45 -25 45 -14 0 -25 5 -25 10 0 6 15 10 34
10 19 0 38 5 41 10 11 18 41 11 42 -10z m75 -215 c-4 -5 -7 -14 -8 -20 -4 -34
-7 -37 -13 -10 -5 25 -12 31 -41 36 l-35 6 33 2 c17 0 32 6 32 11 0 6 8 5 19
-2 11 -7 17 -17 13 -23z m213 -5 c3 -5 1 -10 -4 -10 -6 0 -11 5 -11 10 0 6 2
10 4 10 3 0 8 -4 11 -10z m93 -7 c-16 -2 -40 -2 -55 0 -16 2 -3 4 27 4 30 0
43 -2 28 -4z"/>
<path d="M1664 1351 c-2 -2 -4 -26 -4 -53 l0 -48 125 0 125 0 25 50 c14 28 24
50 23 50 -28 3 -291 4 -294 1z"/>
<path d="M1495 1321 c-3 -10 -1 -29 4 -42 9 -21 10 -19 10 19 1 45 -4 54 -14
23z"/>
<path d="M2256 1242 c-25 -43 -46 -82 -46 -85 0 -4 45 -7 101 -7 55 0 99 4 97
8 -11 27 -94 162 -100 162 -3 0 -27 -35 -52 -78z"/>
<path d="M2017 1271 c-37 -15 -73 -33 -79 -39 -7 -7 -21 -12 -33 -12 -22 0
-121 -32 -132 -43 -3 -4 46 -7 110 -7 102 0 116 -2 119 -17 2 -12 20 9 51 61
26 43 47 80 47 82 0 7 -13 3 -83 -25z m1 -54 c12 -3 11 -5 -5 -6 -12 0 -25 -5
-28 -11 -3 -5 -34 -9 -68 -8 -46 1 -51 2 -22 5 23 2 54 14 70 28 22 17 31 20
33 10 2 -8 11 -16 20 -18z"/>
<path d="M4460 1231 c-25 -10 -71 -24 -102 -31 -32 -7 -58 -16 -58 -19 0 -3
24 -22 52 -41 29 -19 80 -56 114 -82 34 -25 64 -45 66 -43 2 2 2 55 0 119 -2
82 -7 116 -15 115 -7 0 -32 -8 -57 -18z m50 -91 c0 -38 -2 -70 -5 -70 -3 0
-34 21 -71 47 l-65 48 63 21 c35 13 66 23 71 23 4 1 7 -30 7 -69z"/>
<path d="M1708 1213 c6 -2 18 -2 25 0 6 3 1 5 -13 5 -14 0 -19 -2 -12 -5z"/>
<path d="M1660 1100 l0 -50 135 0 135 0 25 50 25 50 -160 0 -160 0 0 -50z"/>
<path d="M3860 932 c0 -4 17 -25 38 -45 l38 -37 134 0 135 0 -47 45 -47 45
-125 0 c-69 0 -126 -4 -126 -8z"/>
<path d="M4150 931 c0 -5 18 -25 40 -45 l40 -36 138 0 137 0 -40 35 c-22 20
-50 40 -63 45 -29 12 -252 13 -252 1z"/>
<path d="M2145 460 c10 -11 27 -20 38 -20 19 0 20 1 2 20 -10 11 -27 20 -38
20 -19 0 -20 -1 -2 -20z"/>
<path d="M2205 400 c10 -11 27 -20 38 -20 19 0 20 1 2 20 -10 11 -27 20 -38
20 -19 0 -20 -1 -2 -20z"/>
<path d="M2265 340 c10 -11 27 -20 38 -20 19 0 20 1 2 20 -10 11 -27 20 -38
20 -19 0 -20 -1 -2 -20z"/>
<path d="M2343 262 c41 -42 77 -62 77 -43 0 15 -87 91 -104 91 -16 0 -11 -9
27 -48z"/>
</g>
</svg>
